<?xml version="1.0" standalone="no"?>
<!DOCTYPE svg PUBLIC "-//W3C//DTD SVG 20010904//EN"
 "http://www.w3.org/TR/2001/REC-SVG-20010904/DTD/svg10.dtd">
<svg version="1.0" xmlns="http://www.w3.org/2000/svg"
 width="1280.000000pt" height="958.000000pt" viewBox="0 0 1280.000000 958.000000"
 preserveAspectRatio="xMidYMid meet">
<g transform="translate(0.000000,958.000000) scale(0.100000,-0.100000)"
fill="#ffc107" stroke="none">
<path d="M6085 9523 c-223 -72 -484 -155 -1140 -363 -618 -196 -890 -283
-1196 -381 -119 -38 -226 -69 -238 -69 -12 0 -32 -6 -44 -14 -12 -7 -245 -84
-517 -171 -272 -86 -592 -187 -710 -225 -118 -38 -458 -146 -755 -240 -557
-177 -811 -258 -1190 -379 -121 -38 -232 -73 -248 -77 -15 -3 -29 -10 -32 -14
-3 -4 508 -269 1134 -589 626 -320 1146 -587 1155 -594 17 -12 16 -17 -1 -97
-20 -93 -23 -389 -14 -1237 l4 -393 52 0 c29 0 79 3 112 6 l60 7 6 121 c4 66
0 357 -9 646 -12 404 -14 558 -5 669 6 80 14 148 19 153 6 6 251 -114 587
-286 318 -163 580 -298 582 -300 8 -7 144 -1850 148 -1997 13 -493 192 -1005
442 -1262 80 -82 119 -107 295 -188 625 -289 1210 -449 1813 -499 260 -21 640
-11 915 26 487 64 1086 243 1470 440 298 152 469 280 625 467 170 203 209 332
236 789 l12 203 -72 965 c-39 531 -77 1036 -83 1122 -6 87 -10 159 -7 161 2 2
740 410 1639 907 899 497 1641 908 1648 915 13 12 4 14 -603 184 -137 38 -443
124 -680 190 -236 66 -657 183 -935 261 -278 77 -584 163 -680 190 -96 27
-305 85 -465 130 -159 45 -369 103 -465 130 -96 27 -402 113 -680 190 -278 77
-584 163 -680 190 -204 57 -1152 322 -1256 350 -38 11 -72 20 -75 19 -2 0 -80
-26 -174 -56z"/>
<path d="M2122 4316 c12 -110 45 -193 111 -278 29 -36 30 -43 73 -409 27 -232
48 -375 55 -380 9 -5 10 -95 6 -365 -6 -392 -20 -627 -73 -1279 -53 -660 -63
-800 -74 -1068 l-11 -248 32 -65 c43 -87 104 -148 187 -187 63 -30 74 -32 172
-31 87 1 117 5 172 26 179 68 313 195 376 358 70 183 25 548 -259 2070 -127
679 -158 860 -153 875 3 7 -13 174 -36 371 -23 196 -39 367 -37 378 3 12 17
52 31 89 15 38 30 102 34 143 l8 74 -311 0 -311 0 8 -74z"/>
</g>
</svg>
